<?xml version="1.0" encoding="utf-8"?>
<svg version="1.1" xmlns="http://www.w3.org/2000/svg" xmlns:xlink="http://www.w3.org/1999/xlink" x="0px" y="0px" viewBox="90 220 810 65" xml:space="preserve">
<style type="text/css">
	.st0{fill:#E6E6E6;}
	.st1{fill:#D9151B;}
	.st2{fill:#FFFFFF;}
</style>
<g id="XMLID_26_">
	<path id="XMLID_48_" class="st0" d="M221.2,200c3.7,3.7,3.6,7.1-0.6,11.3l-7.8,7.8c-4.1,4.1-7.6,4.2-11.3,0.6l-8.9-8.9
		c-3.7-3.7-3.6-7.1,0.5-11.3l7.8-7.8c4.1-4.1,7.6-4.2,11.3-0.6L221.2,200z M258.6,144.9c-3.7-3.7-7.2-3.6-11.3,0.6l-7.8,7.8
		c-4.1,4.1-4.2,7.6-0.5,11.3l8.9,8.9c3.7,3.7,7.1,3.6,11.3-0.6l7.8-7.8c4.1-4.1,4.2-7.6,0.6-11.3L258.6,144.9z M394.3,272.7
		L272.7,394.3c-12.2,12.2-26.3,12.2-38.5,0L112.8,272.8c-12.2-12.2-12.2-26.3,0-38.5l121.5-121.5c12.2-12.2,26.3-12.2,38.5,0
		l121.5,121.5C406.5,246.5,406.5,260.5,394.3,272.7 M194.3,248l-19.6-19.6c-9.2-9.2-20.1-9.3-30.4,0.9l-7.3,7.3
		c-10.3,10.3-10.1,21.3-0.9,30.4l19.6,19.6c3.4,3.4,7.3,2.9,9.9,0.3c2.6-2.6,3.1-6.4-0.4-9.8l-19.4-19.4c-3.7-3.7-3.6-7.1,0.6-11.3
		l7.8-7.8c4.1-4.1,7.6-4.3,11.3-0.6l19.4,19.4c3.4,3.4,7.2,3,9.8,0.3C197.2,255.3,197.7,251.5,194.3,248 M231,190.6l-9.2-9.2
		c-9.1-9.2-20.1-9.3-30.4,1l-7.3,7.3c-10.3,10.3-10.1,21.2-1,30.4l29.6,29.6c3.4,3.4,7.3,2.9,9.9,0.3c2.6-2.6,3.1-6.4-0.3-9.8
		l-6.8-6.8c1.9-0.4,4.1-1.8,6.8-4.5l7.8-7.8C240.3,210.8,240.1,199.8,231,190.6 M277.2,144.4l-9.2-9.2c-9.1-9.2-20.1-9.3-30.4,1
		l-7.3,7.3c-10.3,10.3-10.1,21.2-1,30.4l9.2,9.2c9.1,9.2,20.1,9.3,30.4-0.9l7.3-7.3C286.5,164.6,286.3,153.6,277.2,144.4"/>
	<path id="XMLID_42_" class="st1" d="M194.3,248c3.4,3.4,2.9,7.2,0.3,9.9c-2.6,2.6-6.4,3.1-9.8-0.3l-19.4-19.4
		c-3.7-3.7-7.2-3.6-11.3,0.6l-7.8,7.8c-4.1,4.1-4.2,7.6-0.6,11.3l19.4,19.4c3.4,3.4,3,7.2,0.4,9.8c-2.6,2.6-6.5,3.1-9.9-0.3
		L136,267.1c-9.2-9.2-9.3-20.2,0.9-30.4l7.3-7.3c10.3-10.3,21.3-10.1,30.4-0.9L194.3,248z M277.2,144.4c9.1,9.2,9.3,20.2-1,30.4
		l-7.3,7.3c-10.3,10.3-21.3,10.1-30.4,0.9l-9.2-9.2c-9.1-9.2-9.3-20.1,1-30.4l7.3-7.3c10.3-10.3,21.3-10.1,30.4-1L277.2,144.4z
		 M267.5,153.8l-8.9-8.9c-3.7-3.7-7.2-3.6-11.3,0.6l-7.8,7.8c-4.1,4.1-4.2,7.6-0.5,11.3l8.9,8.9c3.7,3.7,7.1,3.6,11.3-0.6l7.8-7.8
		C271,160.9,271.1,157.5,267.5,153.8 M231,190.6c9.1,9.2,9.3,20.2-1,30.4l-7.8,7.8c-2.7,2.7-5,4.1-6.8,4.5l6.8,6.8
		c3.4,3.4,3,7.2,0.3,9.8c-2.6,2.6-6.5,3.1-9.9-0.3l-29.6-29.6c-9.1-9.2-9.3-20.1,1-30.4l7.3-7.3c10.3-10.3,21.2-10.1,30.4-1
		L231,190.6z M221.2,200l-8.9-8.9c-3.7-3.7-7.1-3.6-11.3,0.6l-7.7,7.8c-4.1,4.1-4.2,7.6-0.5,11.3l8.9,8.9c3.7,3.7,7.1,3.6,11.3-0.6
		l7.8-7.8C224.8,207.2,224.9,203.7,221.2,200"/>
	<path id="XMLID_41_" class="st1" d="M260.5,234.3c-12.2,12.2-12.2,26.3,0,38.5L382,394.3c12.2,12.2,26.3,12.2,38.5,0L542,272.7
		c12.2-12.2,12.2-26.3,0-38.5L420.5,112.8c-12.2-12.2-26.3-12.2-38.5,0L260.5,234.3z"/>
	<path id="XMLID_40_" class="st2" d="M436.4,302.5c8.8,0,13.3-5.5,13.3-12.3V251c0-6.8-4.5-12.3-13.3-12.3l-70.6,0
		c-8.6,0-13,5.4-13,12c0,6.6,4.4,12,13,12l54.8,0c1.9,0,3,1,3,3.2l0,9.4c0,2.2-1.1,3.2-3,3.2h-54.4c-8.8,0-13.3,5.5-13.3,12.3v39.1
		c0,6.8,4.5,12.3,13.3,12.3l70.6,0c8.6,0,13-5.4,13-12c0-6.6-4.4-12-13-12h-54.8c-1.9,0-3-1-3-3.2v-9.4c0-2.2,1.1-3.2,3-3.2H436.4z"
		/>
	<path id="XMLID_39_" class="st2" d="M326.6,194.5c0-2.1,0.9-3.2,2.9-3.8c3.7-1,7.5-1.5,10.9-1.5c1.6,0,3.3,0.1,5,0.3
		c1.7,0.2,2.6,1.2,2.6,2.6c0,0.3-0.1,1-0.1,1.3l-0.1,0.7c-0.4,1.9-1,2.8-2.6,2.8c-1,0-2.7-0.3-4.6-0.3c-1.7,0-4.1,0.2-5.6,0.7v24.5
		c0,2.1-0.9,3-3,3h-2.2c-2.1,0-3-0.9-3-3V194.5z"/>
	<path id="XMLID_36_" class="st2" d="M354.7,194.7c-0.2-0.5-0.3-1-0.3-1.4c0-1.3,1-2,1.9-2.4c2.3-1,7-1.7,10.9-1.7
		c9.7,0,14.5,4.2,14.5,14.3v17.2c0,2.5-1.2,3.2-3,3.6c-2.3,0.5-8.2,1.2-12.1,1.2c-9.6,0-15.4-3.7-15.4-11.3c0-7.7,6-11.2,14.9-11.2
		c3.5,0,6.1,0.6,7.4,0.9v-1c0-4.3-2.1-6.8-7.7-6.8c-2.8,0-4.9,0.6-6.9,1.2c-0.6,0.2-1.2,0.3-1.7,0.3c-1.1,0-1.7-0.6-2.3-2.1
		L354.7,194.7z M373.6,209.7c-1.6-0.5-3.7-0.8-5.9-0.8c-5.4,0-8.1,1.7-8.1,5.2c0,3.5,2.6,5.1,8.2,5.1c2,0,4.2-0.2,5.8-0.7V209.7z"/>
	<path id="XMLID_33_" class="st2" d="M412.7,178.8c0-2.1,0.9-3,3-3h2.2c2.1,0,3,0.9,3,3v41.6c0,2.3-1.1,3.2-2.8,3.7
		c-2.3,0.8-7,1.2-10.2,1.2c-12.4,0-18.9-6.9-18.9-18c0-11.3,6.8-18.3,17.8-18.3c2.5,0,4.5,0.3,5.9,0.8V178.8z M412.7,197
		c-1.2-0.4-3.2-0.7-4.9-0.7c-7.2,0-10.3,4.4-10.3,11c0,6.6,3.1,11,10.3,11c1.7,0,3.7-0.3,4.9-0.7V197z"/>
	<path id="XMLID_30_" class="st2" d="M434,175.1c3,0,5.1,2,5.1,5c0,3-2.1,5-5.1,5c-3,0-5.1-2-5.1-5C428.9,177.1,431,175.1,434,175.1
		 M429.9,192.9c0-2.1,0.9-3,3-3h2.2c2.1,0,3,0.9,3,3v28.8c0,2.1-0.9,3-3,3h-2.2c-2.1,0-3-0.9-3-3V192.9z"/>
	<path id="XMLID_27_" class="st2" d="M446.7,207.3c0-11.8,6.8-18.1,17.3-18.1c10.5,0,17.3,6.3,17.3,18.1c0,11.9-6.8,18.1-17.3,18.1
		C453.5,225.4,446.7,219.1,446.7,207.3 M472.9,207.3c0-7-3.2-11-8.9-11c-5.7,0-8.9,4-8.9,11c0,7.1,3.2,11,8.9,11
		C469.7,218.3,472.9,214.4,472.9,207.3"/>
</g>
<path id="XMLID_1_" class="st1" d="M581.2,253.2c0.1,11.5-4.2,23-13,31.7l-70.8,70.8h341.6l13.6-102.5H581.2z"/>
<g id="XMLID_404_">
	<path id="XMLID_414_" class="st2" d="M591.1,323.7l30.7-24.4c0.8-0.7,1.6-1.3,2.4-2c0.8-0.7,1.6-1.4,2.3-2.2
		c0.7-0.8,1.3-1.6,1.8-2.6c0.5-0.9,0.9-1.9,1-3c0.3-2.4-0.3-4.2-1.8-5.6c-1.5-1.4-3.4-2-5.7-2c-2.8,0-5,0.9-6.8,2.6
		c-1.8,1.7-2.9,3.8-3.5,6.3l-14.7-1.1c0.7-3.6,1.9-6.8,3.7-9.4c1.7-2.7,3.8-4.9,6.2-6.7c2.4-1.8,5.1-3.1,8.2-4
		c3.1-0.9,6.3-1.3,9.7-1.3c3.2,0,6.1,0.4,8.7,1.3c2.6,0.9,4.8,2.2,6.6,4c1.8,1.7,3.1,3.9,3.9,6.6c0.8,2.6,1,5.7,0.5,9.2
		c-0.7,4.5-2,8.2-4.2,11c-2.1,2.9-4.7,5.5-7.7,7.8l-23.8,18.3h31.1l-1.8,13.1h-48.9L591.1,323.7z"/>
	<path id="XMLID_411_" class="st2" d="M650,304.5c0.6-4.2,1.6-8.4,3-12.7c1.4-4.3,3.3-8.2,5.7-11.7c2.4-3.5,5.5-6.3,9.2-8.6
		c3.7-2.2,8.1-3.3,13.3-3.3s9.3,1.1,12.4,3.3c3,2.2,5.3,5.1,6.7,8.6c1.5,3.5,2.3,7.4,2.4,11.7c0.2,4.3-0.1,8.5-0.6,12.7
		c-0.6,4.2-1.6,8.4-2.9,12.7c-1.4,4.3-3.2,8.2-5.7,11.7c-2.4,3.5-5.5,6.3-9.2,8.6c-3.7,2.2-8.1,3.3-13.3,3.3
		c-5.2,0-9.3-1.1-12.4-3.3c-3-2.2-5.3-5.1-6.8-8.6c-1.5-3.5-2.3-7.4-2.5-11.7C649.2,312.8,649.5,308.6,650,304.5z M664.9,304.5
		c-0.3,1.8-0.5,4.1-0.7,6.6c-0.2,2.6-0.1,5,0.3,7.4c0.4,2.4,1.2,4.4,2.5,6c1.3,1.6,3.2,2.5,5.9,2.5c2.6,0,4.8-0.8,6.6-2.5
		c1.7-1.6,3.1-3.7,4.2-6c1.1-2.4,1.8-4.8,2.4-7.4c0.5-2.6,0.9-4.8,1.2-6.6c0.3-1.8,0.5-4.1,0.7-6.6c0.2-2.6,0.1-5-0.3-7.4
		c-0.4-2.4-1.2-4.4-2.5-6c-1.3-1.6-3.3-2.5-5.9-2.5c-2.7,0-4.9,0.8-6.6,2.5c-1.7,1.6-3.1,3.7-4.2,6c-1.1,2.4-1.8,4.8-2.4,7.4
		C665.5,300.4,665.2,302.6,664.9,304.5z"/>
	<path id="XMLID_408_" class="st2" d="M709.1,304.5c0.6-4.2,1.6-8.4,3-12.7c1.4-4.3,3.3-8.2,5.7-11.7c2.4-3.5,5.5-6.3,9.2-8.6
		c3.7-2.2,8.1-3.3,13.3-3.3c5.2,0,9.3,1.1,12.4,3.3c3,2.2,5.3,5.1,6.7,8.6c1.5,3.5,2.3,7.4,2.4,11.7c0.2,4.3-0.1,8.5-0.6,12.7
		c-0.6,4.2-1.6,8.4-2.9,12.7c-1.4,4.3-3.2,8.2-5.7,11.7c-2.4,3.5-5.5,6.3-9.2,8.6c-3.7,2.2-8.1,3.3-13.3,3.3
		c-5.2,0-9.3-1.1-12.4-3.3c-3-2.2-5.3-5.1-6.8-8.6c-1.5-3.5-2.3-7.4-2.5-11.7C708.2,312.8,708.5,308.6,709.1,304.5z M723.9,304.5
		c-0.3,1.8-0.5,4.1-0.7,6.6c-0.2,2.6-0.1,5,0.3,7.4c0.4,2.4,1.2,4.4,2.5,6c1.3,1.6,3.2,2.5,5.9,2.5c2.6,0,4.8-0.8,6.6-2.5
		c1.7-1.6,3.1-3.7,4.2-6c1.1-2.4,1.8-4.8,2.4-7.4c0.5-2.6,0.9-4.8,1.2-6.6c0.3-1.8,0.5-4.1,0.7-6.6c0.2-2.6,0.1-5-0.3-7.4
		c-0.4-2.4-1.2-4.4-2.5-6c-1.3-1.6-3.3-2.5-5.9-2.5c-2.7,0-4.9,0.8-6.6,2.5c-1.7,1.6-3.1,3.7-4.2,6c-1.1,2.4-1.8,4.8-2.4,7.4
		C724.6,300.4,724.2,302.6,723.9,304.5z"/>
	<path id="XMLID_405_" class="st2" d="M768.1,304.5c0.6-4.2,1.6-8.4,3-12.7c1.4-4.3,3.3-8.2,5.7-11.7c2.4-3.5,5.5-6.3,9.2-8.6
		c3.7-2.2,8.1-3.3,13.3-3.3s9.3,1.1,12.4,3.3c3,2.2,5.3,5.1,6.7,8.6c1.5,3.5,2.3,7.4,2.4,11.7c0.2,4.3-0.1,8.5-0.6,12.7
		c-0.6,4.2-1.6,8.4-2.9,12.7c-1.4,4.3-3.2,8.2-5.7,11.7c-2.4,3.5-5.5,6.3-9.2,8.6c-3.7,2.2-8.1,3.3-13.3,3.3
		c-5.2,0-9.3-1.1-12.4-3.3c-3-2.2-5.3-5.1-6.8-8.6c-1.5-3.5-2.3-7.4-2.5-11.7C767.2,312.8,767.5,308.6,768.1,304.5z M782.9,304.5
		c-0.3,1.8-0.5,4.1-0.7,6.6c-0.2,2.6-0.1,5,0.3,7.4c0.4,2.4,1.2,4.4,2.5,6c1.3,1.6,3.2,2.5,5.9,2.5c2.6,0,4.8-0.8,6.6-2.5
		c1.7-1.6,3.1-3.7,4.2-6c1.1-2.4,1.8-4.8,2.4-7.4c0.5-2.6,0.9-4.8,1.2-6.6c0.3-1.8,0.5-4.1,0.7-6.6c0.2-2.6,0.1-5-0.3-7.4
		c-0.4-2.4-1.2-4.4-2.5-6c-1.3-1.6-3.3-2.5-5.9-2.5c-2.7,0-4.9,0.8-6.6,2.5c-1.7,1.6-3.1,3.7-4.2,6c-1.1,2.4-1.8,4.8-2.4,7.4
		C783.6,300.4,783.2,302.6,782.9,304.5z"/>
</g>
<path id="XMLID_3_" class="st2" d="M581.2,253.2h271.5l13.6-102.5H496.9l71.4,71.4C576.8,230.7,581.2,242,581.2,253.2z"/>
<g id="XMLID_245_">
	<path id="XMLID_252_" class="st1" d="M628.3,180.7h-20l1.9-13.7h55.4l-1.9,13.7h-20l-7.9,56.4h-15.4L628.3,180.7z"/>
	<path id="XMLID_249_" class="st1" d="M661.6,202c0.8-5.6,2.5-10.7,5-15.2c2.5-4.6,5.7-8.4,9.5-11.6c3.8-3.2,8.1-5.7,13-7.4
		c4.9-1.7,10.1-2.6,15.5-2.6c5.5,0,10.4,0.9,14.7,2.6c4.4,1.7,8,4.2,10.9,7.4c2.9,3.2,5,7.1,6.2,11.6c1.3,4.6,1.5,9.6,0.7,15.2
		c-0.8,5.6-2.4,10.7-4.9,15.2c-2.5,4.6-5.7,8.4-9.5,11.6c-3.8,3.2-8.2,5.7-13,7.4c-4.8,1.7-10,2.6-15.5,2.6
		c-5.5,0-10.4-0.9-14.8-2.6c-4.4-1.7-8-4.2-10.9-7.4c-2.9-3.2-5-7.1-6.2-11.6C661,212.7,660.8,207.6,661.6,202z M677.6,202
		c-0.5,3.3-0.4,6.3,0.3,9.1c0.7,2.7,1.8,5.1,3.4,7.1c1.6,2,3.7,3.6,6.2,4.7c2.5,1.1,5.4,1.7,8.7,1.7c3.3,0,6.4-0.6,9.2-1.7
		c2.8-1.1,5.3-2.7,7.5-4.7c2.2-2,4-4.4,5.4-7.1c1.4-2.7,2.4-5.8,2.8-9.1c0.5-3.2,0.4-6.2-0.2-9c-0.6-2.8-1.8-5.2-3.4-7.2
		c-1.6-2-3.7-3.6-6.2-4.7c-2.5-1.1-5.4-1.7-8.7-1.7s-6.4,0.6-9.2,1.7c-2.8,1.1-5.3,2.7-7.5,4.7c-2.2,2-4,4.4-5.4,7.2
		C679,195.8,678.1,198.8,677.6,202z"/>
	<path id="XMLID_246_" class="st1" d="M751.7,167h26c3.6,0,7,0.3,10.1,1c3.1,0.7,5.8,1.8,8,3.4c2.2,1.6,3.8,3.8,4.8,6.5
		c1.1,2.7,1.3,6.2,0.7,10.3c-0.6,4.1-1.7,7.5-3.5,10.3c-1.7,2.8-3.8,5-6.4,6.6c-2.5,1.6-5.4,2.8-8.7,3.5c-3.3,0.7-6.7,1-10.4,1
		h-11.3l-3.8,27.3H742L751.7,167z M763,196.7h10.3c1.4,0,2.7-0.1,4.1-0.4c1.3-0.3,2.5-0.7,3.7-1.3c1.1-0.6,2.1-1.5,2.9-2.6
		c0.8-1.1,1.3-2.5,1.5-4.1c0.3-1.8,0-3.2-0.6-4.3c-0.7-1.1-1.6-1.9-2.9-2.5c-1.2-0.6-2.6-1-4.2-1.1c-1.5-0.2-3.1-0.2-4.5-0.2h-7.9
		L763,196.7z"/>
</g>
</svg>
