<svg xmlns="http://www.w3.org/2000/svg" xmlns:xlink="http://www.w3.org/1999/xlink" width="76" height="28"
     viewBox="0 0 76 28">
    <defs>
        <path id="a" d="M18.163 9.25a13.665 13.665 0 0 1-9.7 10.457L.075 11.319l.767-8.75L9.098.145"/>
        <linearGradient id="b" x1="15.068%" x2="60.224%" y1="21.916%" y2="72.106%">
            <stop offset="0%" stop-opacity=".1"/>
            <stop offset="100%" stop-opacity="0"/>
        </linearGradient>
    </defs>
    <g fill="none" fill-rule="evenodd">
        <path fill="#6DDDD2"
              d="M61.783.336c-7.538 0-13.627 6.111-13.627 13.65 0 2.53.684 4.897 1.912 6.929v.405c0 4.622-3.396 6.119-3.396 6.119s4.8.05 7.341-2.2h.002c.023 0 .052-.034.085-.034.032 0 .061.033.084.033h.003c2.172 1.638 4.784 2.353 7.596 2.353 7.539 0 13.65-6.09 13.65-13.628S69.321.336 61.782.336"/>
        <g transform="translate(57.004 7.42)">
            <mask id="c" fill="#fff">
                <use xlink:href="#a"/>
            </mask>
            <path fill="url(#b)"
                  d="M18.163 9.25L9.098.146.842 2.568l-.767 8.75 8.388 8.389a13.665 13.665 0 0 0 9.7-10.457"
                  mask="url(#c)"/>
        </g>
        <path fill="#FAFDFA"
              d="M55.297 15.6c-.535 0-.792-.237-.792-.773 0-.456.257-.733.792-.733h.02v-.377c0-.218 0-.456.02-.693h-.04c-.535 0-.792-.239-.792-.774 0-.456.257-.733.792-.733h.258a6.837 6.837 0 0 1 1.705-3.132c1.328-1.408 2.993-2.102 4.996-2.102 1.17 0 2.2.238 3.072.734.892.476 1.328 1.05 1.348 1.705 0 .852-.535 1.625-1.308 1.645-.377.02-.813-.139-1.308-.436-.496-.317-1.09-.476-1.785-.476-1.13 0-2.022.397-2.676 1.17a4.192 4.192 0 0 0-.555.892h3.033c.496 0 .793.277.793.733 0 .535-.297.774-.793.774h-3.41c-.02.237-.04.475-.04.693v.377h2.3c.476 0 .774.277.774.733 0 .536-.298.774-.774.774h-1.982c.159.416.377.793.654 1.13.654.773 1.547 1.169 2.676 1.169.694 0 1.289-.159 1.785-.456.495-.317.931-.475 1.308-.456.773.02 1.308.813 1.308 1.626-.02.674-.456 1.248-1.348 1.744-.872.476-1.903.714-3.072.714-2.003 0-3.668-.694-4.996-2.101-.892-.952-1.467-2.082-1.764-3.37h-.199z"/>
        <path fill="#FFF"
              d="M4.666 9.152H2.519c-1.074 0-1.71-.57-1.71-1.621 0-1.074.636-1.644 1.71-1.644h7.823c1.073 0 1.709.57 1.709 1.622 0 1.074-.636 1.643-1.71 1.643H8.217V19.32c0 1.513-.745 2.148-1.775 2.148-1.052 0-1.775-.635-1.775-2.148V9.152zM15.338 5.887c1.03 0 1.775.636 1.775 2.148V19.32c0 1.512-.745 2.148-1.775 2.148-1.052 0-1.775-.636-1.775-2.148V8.232c0-1.775.723-2.345 1.775-2.345M23.227 15.332v3.988c0 1.512-.745 2.148-1.775 2.148-1.052 0-1.775-.636-1.775-2.148V8.035c0-1.512.723-2.147 1.775-2.147 1.03 0 1.775.635 1.775 2.147v3.703l4.755-4.842c1.03-1.14 1.994-1.096 2.673-.548.702.548.877 1.665-.11 2.717l-4.754 4.47 5.084 4.733c.57.548.854 1.074.854 1.534 0 .46-.153.855-.438 1.184a1.603 1.603 0 0 1-1.183.482c-.46 0-.965-.263-1.512-.81l-5.37-5.326zM37.383 15.332v3.988c0 1.512-.745 2.148-1.775 2.148-1.052 0-1.775-.636-1.775-2.148V8.035c0-1.512.723-2.147 1.775-2.147 1.03 0 1.775.635 1.775 2.147v3.703l4.755-4.842c1.03-1.14 1.995-1.096 2.674-.548.701.548.876 1.665-.11 2.717l-4.755 4.47 5.084 4.733c.57.548.855 1.074.855 1.534 0 .46-.154.855-.439 1.184a1.603 1.603 0 0 1-1.183.482c-.46 0-.964-.263-1.512-.81l-5.369-5.326zM49.765 5.887c1.03 0 1.775.636 1.775 2.148V19.32c0 1.512-.745 2.148-1.775 2.148-1.052 0-1.775-.636-1.775-2.148V8.232c0-1.775.723-2.345 1.775-2.345"/>
    </g>
</svg>
